<mxfile host="Electron" modified="2024-07-17T19:50:36.558Z" agent="Mozilla/5.0 (Windows NT 10.0; Win64; x64) AppleWebKit/537.36 (KHTML, like Gecko) draw.io/24.6.4 Chrome/124.0.6367.207 Electron/30.0.6 Safari/537.36" etag="M2Eo4VOUxXaAdrWhMq_L" version="24.6.4" type="device">
  <diagram name="StrÃ¡nka-1" id="7cv6oIKIlZ3jFTnPLx0k">
    <mxGraphModel dx="989" dy="582" grid="1" gridSize="10" guides="1" tooltips="1" connect="1" arrows="1" fold="1" page="1" pageScale="1" pageWidth="827" pageHeight="1169" math="0" shadow="0">
      <root>
        <mxCell id="0" />
        <mxCell id="1" parent="0" />
        <mxCell id="fteQuubG04KwnM7p7pIa-1" value="GDTwins" style="ellipse;whiteSpace=wrap;html=1;aspect=fixed;fontStyle=1" vertex="1" parent="1">
          <mxGeometry x="240" y="241" width="80" height="80" as="geometry" />
        </mxCell>
        <mxCell id="fteQuubG04KwnM7p7pIa-3" value="&lt;span style=&quot;font-size: 11px;&quot;&gt;&lt;b style=&quot;font-size: 11px;&quot;&gt;Citizens&lt;/b&gt;&lt;/span&gt;" style="whiteSpace=wrap;html=1;aspect=fixed;fontSize=11;" vertex="1" parent="1">
          <mxGeometry x="240" y="41" width="80" height="80" as="geometry" />
        </mxCell>
        <mxCell id="fteQuubG04KwnM7p7pIa-6" value="&lt;b&gt;Context Diagram&lt;/b&gt;" style="shape=umlFrame;whiteSpace=wrap;html=1;pointerEvents=0;width=109;height=60;" vertex="1" parent="1">
          <mxGeometry y="1" width="560" height="559" as="geometry" />
        </mxCell>
        <mxCell id="fteQuubG04KwnM7p7pIa-9" value="&lt;b style=&quot;font-size: 11px;&quot;&gt;&lt;font style=&quot;font-size: 11px;&quot;&gt;Modellers&lt;/font&gt;&lt;/b&gt;" style="whiteSpace=wrap;html=1;aspect=fixed;fontSize=11;" vertex="1" parent="1">
          <mxGeometry x="440" y="241" width="80" height="80" as="geometry" />
        </mxCell>
        <mxCell id="fteQuubG04KwnM7p7pIa-10" value="&lt;b style=&quot;font-size: 11px;&quot;&gt;&lt;font style=&quot;font-size: 11px;&quot;&gt;UJEP&lt;/font&gt;&lt;/b&gt;" style="whiteSpace=wrap;html=1;aspect=fixed;fontSize=11;" vertex="1" parent="1">
          <mxGeometry x="240" y="439" width="80" height="80" as="geometry" />
        </mxCell>
        <mxCell id="fteQuubG04KwnM7p7pIa-11" value="&lt;b style=&quot;font-size: 11px;&quot;&gt;&lt;font style=&quot;font-size: 11px;&quot;&gt;Municipalities&lt;/font&gt;&lt;/b&gt;" style="whiteSpace=wrap;html=1;aspect=fixed;fontSize=11;" vertex="1" parent="1">
          <mxGeometry x="40" y="241" width="80" height="80" as="geometry" />
        </mxCell>
        <mxCell id="fteQuubG04KwnM7p7pIa-12" value="" style="endArrow=block;html=1;rounded=0;exitX=0.5;exitY=1;exitDx=0;exitDy=0;entryX=0.5;entryY=0;entryDx=0;entryDy=0;endFill=1;" edge="1" parent="1" source="fteQuubG04KwnM7p7pIa-3" target="fteQuubG04KwnM7p7pIa-1">
          <mxGeometry width="50" height="50" relative="1" as="geometry">
            <mxPoint x="270" y="210" as="sourcePoint" />
            <mxPoint x="320" y="160" as="targetPoint" />
          </mxGeometry>
        </mxCell>
        <mxCell id="fteQuubG04KwnM7p7pIa-13" value="" style="endArrow=none;html=1;rounded=0;exitX=0.5;exitY=1;exitDx=0;exitDy=0;entryX=0.5;entryY=0;entryDx=0;entryDy=0;endFill=0;startArrow=block;startFill=1;" edge="1" parent="1">
          <mxGeometry width="50" height="50" relative="1" as="geometry">
            <mxPoint x="279.65999999999997" y="320" as="sourcePoint" />
            <mxPoint x="279.65999999999997" y="440" as="targetPoint" />
          </mxGeometry>
        </mxCell>
        <mxCell id="fteQuubG04KwnM7p7pIa-14" value="" style="endArrow=block;html=1;rounded=0;exitX=0;exitY=0.5;exitDx=0;exitDy=0;entryX=1;entryY=0.5;entryDx=0;entryDy=0;endFill=1;" edge="1" parent="1" source="fteQuubG04KwnM7p7pIa-9" target="fteQuubG04KwnM7p7pIa-1">
          <mxGeometry width="50" height="50" relative="1" as="geometry">
            <mxPoint x="370" y="311" as="sourcePoint" />
            <mxPoint x="370" y="431" as="targetPoint" />
          </mxGeometry>
        </mxCell>
        <mxCell id="fteQuubG04KwnM7p7pIa-15" value="" style="endArrow=block;html=1;rounded=0;exitX=0;exitY=0.5;exitDx=0;exitDy=0;entryX=1;entryY=0.5;entryDx=0;entryDy=0;endFill=1;" edge="1" parent="1">
          <mxGeometry width="50" height="50" relative="1" as="geometry">
            <mxPoint x="119.99999999999955" y="280" as="sourcePoint" />
            <mxPoint x="239.99999999999955" y="280" as="targetPoint" />
          </mxGeometry>
        </mxCell>
        <mxCell id="fteQuubG04KwnM7p7pIa-16" value="Views digital twin and provides feedback" style="text;html=1;align=center;verticalAlign=middle;whiteSpace=wrap;rounded=0;fontSize=10;" vertex="1" parent="1">
          <mxGeometry x="166" y="162" width="120" height="30" as="geometry" />
        </mxCell>
        <mxCell id="fteQuubG04KwnM7p7pIa-17" value="Hosts, configures and improves digital twin app" style="text;html=1;align=center;verticalAlign=middle;whiteSpace=wrap;rounded=0;fontSize=10;" vertex="1" parent="1">
          <mxGeometry x="272" y="363" width="140" height="30" as="geometry" />
        </mxCell>
        <mxCell id="fteQuubG04KwnM7p7pIa-18" value="Uses app for modelling digital twin and deploys twin to public webserver" style="text;html=1;align=center;verticalAlign=middle;whiteSpace=wrap;rounded=0;fontSize=10;" vertex="1" parent="1">
          <mxGeometry x="308" y="228" width="130" height="30" as="geometry" />
        </mxCell>
        <mxCell id="fteQuubG04KwnM7p7pIa-20" value="Hosts digital wins for citizens on their webservers" style="text;html=1;align=center;verticalAlign=middle;whiteSpace=wrap;rounded=0;fontSize=10;" vertex="1" parent="1">
          <mxGeometry x="126" y="232" width="120" height="30" as="geometry" />
        </mxCell>
      </root>
    </mxGraphModel>
  </diagram>
</mxfile>
